<svg width="67" height="64" viewBox="0 0 67 64" fill="none" xmlns="http://www.w3.org/2000/svg">
<path d="M0 15C0 6.71573 6.71573 0 15 0H52C60.2843 0 67 6.71573 67 15V49C67 57.2843 60.2843 64 52 64H15C6.71573 64 0 57.2843 0 49V15Z" fill="#B9EEFF"/>
<path d="M40.2589 19.7009L19.5069 40.4796C19.267 40.7183 19.4214 41.1271 19.7599 41.1532L22.1851 41.3265C22.3921 41.3429 22.5531 41.5129 22.5531 41.719V43.8805C22.5531 44.0702 22.6911 44.237 22.8784 44.2697L24.7713 44.6065C24.9619 44.6392 25.0966 44.8027 25.0966 44.9957V46.2449C25.0966 46.598 25.5238 46.7746 25.7735 46.5228L46.4598 25.875L40.2589 19.7009Z" stroke="#49869A" stroke-width="2" stroke-miterlimit="10"/>
<path d="M50.9851 21.2344C51.4616 20.7897 51.4813 20.0441 51.0278 19.5764L46.6474 15.0276C46.2005 14.5633 45.4578 14.5469 44.9879 14.9917L42.543 17.2677L48.6191 23.3796L50.9851 21.2344Z" stroke="#49869A" stroke-width="2" stroke-miterlimit="10"/>
<path d="M19.2627 44.3479C19.0491 44.1222 18.6745 44.2105 18.5825 44.5048L17.3666 48.3996C17.2713 48.7037 17.5506 48.9915 17.8595 48.9098L21.7733 47.8568C22.0691 47.7783 22.171 47.412 21.9607 47.1897L19.2627 44.3479Z" stroke="#49869A" stroke-width="2" stroke-miterlimit="10"/>
<path d="M34.2578 42.0426L42.6079 50.7445C43.16 51.3201 44.0768 51.3331 44.6453 50.7739L51.7434 43.8118C52.3119 43.2558 52.3316 42.3533 51.7861 41.7712L43.2027 33.1379" stroke="#49869A" stroke-width="2" stroke-miterlimit="10"/>
<path d="M45.1172 44.9205L49.8755 40.1853" stroke="#49869A" stroke-width="2" stroke-miterlimit="10" stroke-linecap="round"/>
<path d="M43.7695 40.3519L46.9472 37.1897" stroke="#49869A" stroke-width="2" stroke-miterlimit="10" stroke-linecap="round"/>
<path d="M38.5586 39.037L43.5864 34.0337" stroke="#49869A" stroke-width="2" stroke-miterlimit="10" stroke-linecap="round"/>
<path d="M24.0073 31.6533L15.2629 23.3438C14.6845 22.7944 14.6714 21.882 15.2333 21.3163L22.2295 14.2527C22.7881 13.687 23.6951 13.6674 24.28 14.2102L32.9555 22.7519" stroke="#49869A" stroke-width="2" stroke-miterlimit="10"/>
<path d="M21.1172 20.8456L25.8722 16.1104" stroke="#49869A" stroke-width="2" stroke-miterlimit="10" stroke-linecap="round"/>
<path d="M25.707 22.1862L28.8847 19.0239" stroke="#49869A" stroke-width="2" stroke-miterlimit="10" stroke-linecap="round"/>
<path d="M27.0273 27.3727L32.0552 22.3694" stroke="#49869A" stroke-width="2" stroke-miterlimit="10" stroke-linecap="round"/>
</svg>
