<svg width="67" height="64" viewBox="0 0 67 64" fill="none" xmlns="http://www.w3.org/2000/svg">
<path d="M0 15C0 6.71573 6.71573 0 15 0H52C60.2843 0 67 6.71573 67 15V49C67 57.2843 60.2843 64 52 64H15C6.71573 64 0 57.2843 0 49V15Z" fill="#D6DAFF"/>
<path d="M14.5586 30.5072C18.8876 20.1777 30.875 15.2698 41.3363 19.5442C51.7976 23.8187 56.7682 35.655 52.4423 45.9875" stroke="#5F659B" stroke-width="2" stroke-miterlimit="10" stroke-linecap="round"/>
<path d="M14.5656 45.9998C10.2273 35.6734 15.1916 23.831 25.6498 19.5504C36.108 15.2698 48.1016 20.1685 52.4369 30.4949" stroke="#5F659B" stroke-width="2" stroke-miterlimit="10" stroke-linecap="round"/>
<path d="M35.793 35.8607L40.7854 32.6902" stroke="#5F659B" stroke-width="2" stroke-miterlimit="10" stroke-linecap="round"/>
<path d="M33.5001 40.1817C35.0017 40.1817 36.219 38.9798 36.219 37.4971C36.219 36.0144 35.0017 34.8125 33.5001 34.8125C31.9985 34.8125 30.7812 36.0144 30.7812 37.4971C30.7812 38.9798 31.9985 40.1817 33.5001 40.1817Z" stroke="#5F659B" stroke-width="2" stroke-miterlimit="10" stroke-linecap="round"/>
<path d="M33.7305 18.0037V24.4646" stroke="#5F659B" stroke-width="2" stroke-miterlimit="10" stroke-linecap="round"/>
<path d="M24.1172 20.7065L27.2783 26.3648" stroke="#5F659B" stroke-width="2" stroke-miterlimit="10" stroke-linecap="round"/>
<path d="M16.9453 26.4666L22.3831 30.0645" stroke="#5F659B" stroke-width="2" stroke-miterlimit="10" stroke-linecap="round"/>
<path d="M13.8164 34.1326L20.2165 35.4887" stroke="#5F659B" stroke-width="2" stroke-miterlimit="10" stroke-linecap="round"/>
<path d="M14.3125 43.0047L20.5725 41.1196" stroke="#5F659B" stroke-width="2" stroke-miterlimit="10" stroke-linecap="round"/>
<path d="M42.7432 20.8513L39.582 26.5096" stroke="#5F659B" stroke-width="2" stroke-miterlimit="10" stroke-linecap="round"/>
<path d="M49.919 26.6108L44.4844 30.2088" stroke="#5F659B" stroke-width="2" stroke-miterlimit="10" stroke-linecap="round"/>
<path d="M53.0454 34.2776L46.6484 35.6368" stroke="#5F659B" stroke-width="2" stroke-miterlimit="10" stroke-linecap="round"/>
<path d="M52.549 43.149L46.2891 41.2639" stroke="#5F659B" stroke-width="2" stroke-miterlimit="10" stroke-linecap="round"/>
</svg>
