<svg width="67" height="64" viewBox="0 0 67 64" fill="none" xmlns="http://www.w3.org/2000/svg">
<path d="M0 15C0 6.71573 6.71573 0 15 0H52C60.2843 0 67 6.71573 67 15V49C67 57.2843 60.2843 64 52 64H15C6.71573 64 0 57.2843 0 49V15Z" fill="#FEDBFF"/>
<path d="M22.2852 45.1491H21.2852V45.1882L21.2882 45.2272L22.2852 45.1491ZM28.5234 53.3074L28.0453 54.1857L28.0454 54.1858L28.5234 53.3074ZM38.8897 54.5791L38.6594 53.606L38.626 53.6139L38.5931 53.6241L38.8897 54.5791ZM45.9991 46.8879L46.9954 46.9746L46.9991 46.9313V46.8879H45.9991ZM26.0283 41.7225C26.0283 42.2747 26.476 42.7225 27.0283 42.7225C27.5806 42.7225 28.0283 42.2747 28.0283 41.7225H26.0283ZM30.7719 36.3294C30.7719 36.8817 31.2196 37.3294 31.7719 37.3294C32.3242 37.3294 32.7719 36.8817 32.7719 36.3294H30.7719ZM30.7725 33.9352C30.7725 34.4875 31.2202 34.9352 31.7725 34.9352C32.3247 34.9352 32.7725 34.4875 32.7725 33.9352H30.7725ZM35.5161 39.4106C35.5161 39.9629 35.9638 40.4106 36.5161 40.4106C37.0683 40.4106 37.5161 39.9629 37.5161 39.4106H35.5161ZM35.5156 32.6498C35.5156 33.202 35.9633 33.6498 36.5156 33.6498C37.0679 33.6498 37.5156 33.202 37.5156 32.6498H35.5156ZM40.2592 42.9805C40.2592 43.5328 40.7069 43.9805 41.2592 43.9805C41.8115 43.9805 42.2592 43.5328 42.2592 42.9805H40.2592ZM18 22.215C18 22.7673 18.4477 23.215 19 23.215C19.5523 23.215 20 22.7673 20 22.215H18ZM38.8007 22.215C38.8007 22.7673 39.2484 23.215 39.8007 23.215C40.353 23.215 40.8007 22.7673 40.8007 22.215H38.8007ZM21.6689 22.2148C21.6689 22.7671 22.1167 23.2148 22.6689 23.2148C23.2212 23.2148 23.6689 22.7671 23.6689 22.2148H21.6689ZM35.1364 22.2148C35.1364 22.7671 35.5841 23.2148 36.1364 23.2148C36.6887 23.2148 37.1364 22.7671 37.1364 22.2148H35.1364ZM28.0288 41.6166V35.5229H26.0288V41.6166H28.0288ZM28.0288 35.5229C28.0288 33.6688 26.5035 32.1934 24.657 32.1934V34.1934C25.4319 34.1934 26.0288 34.806 26.0288 35.5229H28.0288ZM24.657 32.1934C22.8135 32.1934 21.2852 33.6658 21.2852 35.5229H23.2852C23.2852 34.8052 23.8829 34.1934 24.657 34.1934V32.1934ZM21.2852 35.5229V45.1491H23.2852V35.5229H21.2852ZM22.2852 45.1491C21.2882 45.2272 21.2883 45.2278 21.2883 45.2283C21.2883 45.2286 21.2884 45.2292 21.2884 45.2296C21.2885 45.2305 21.2885 45.2314 21.2886 45.2325C21.2888 45.2346 21.289 45.2369 21.2892 45.2396C21.2897 45.245 21.2903 45.2516 21.2911 45.2593C21.2926 45.2749 21.2947 45.2952 21.2975 45.3201C21.3032 45.3698 21.312 45.4378 21.3252 45.5225C21.3514 45.6916 21.3951 45.9276 21.4668 46.2167C21.61 46.7945 21.8655 47.5879 22.3183 48.4851C23.2283 50.2883 24.924 52.4868 28.0453 54.1857L29.0014 52.429C26.2742 50.9447 24.8507 49.0641 24.1038 47.584C23.7281 46.8395 23.5207 46.1902 23.4081 45.7357C23.3518 45.5086 23.3194 45.3311 23.3015 45.2157C23.2925 45.1581 23.2872 45.1162 23.2844 45.0915C23.283 45.0791 23.2822 45.0711 23.2818 45.0676C23.2817 45.0659 23.2816 45.0653 23.2817 45.0659C23.2817 45.0661 23.2818 45.0667 23.2818 45.0676C23.2819 45.068 23.2819 45.0685 23.2819 45.0691C23.282 45.0694 23.282 45.0699 23.282 45.07C23.2821 45.0705 23.2821 45.071 22.2852 45.1491ZM28.0454 54.1858C30.8642 55.7195 33.6389 56.0573 35.6976 56.0153C36.728 55.9943 37.5859 55.8781 38.1915 55.7657C38.4946 55.7095 38.7355 55.654 38.9043 55.6114C38.9888 55.5901 39.0553 55.572 39.1027 55.5586C39.1264 55.5519 39.1454 55.5464 39.1593 55.5423C39.1663 55.5402 39.1721 55.5384 39.1766 55.5371C39.1789 55.5364 39.1808 55.5358 39.1824 55.5353C39.1833 55.535 39.184 55.5348 39.1846 55.5346C39.185 55.5345 39.1854 55.5344 39.1856 55.5343C39.186 55.5342 39.1864 55.5341 38.8897 54.5791C38.5931 53.6241 38.5934 53.624 38.5938 53.6239C38.5939 53.6239 38.5942 53.6238 38.5944 53.6237C38.5947 53.6236 38.595 53.6235 38.5952 53.6235C38.5955 53.6233 38.5956 53.6233 38.5954 53.6234C38.595 53.6235 38.5933 53.624 38.5905 53.6249C38.5848 53.6265 38.5744 53.6296 38.5594 53.6338C38.5293 53.6423 38.4809 53.6555 38.4154 53.6721C38.2842 53.7052 38.0847 53.7514 37.8265 53.7993C37.3095 53.8952 36.5611 53.9973 35.6568 54.0157C33.8461 54.0527 31.4376 53.7546 29.0013 52.429L28.0454 54.1858ZM38.8897 54.5791C39.12 55.5522 39.1205 55.5521 39.1209 55.552C39.1211 55.552 39.1216 55.5518 39.122 55.5517C39.1227 55.5516 39.1236 55.5514 39.1245 55.5511C39.1265 55.5507 39.1288 55.5501 39.1315 55.5495C39.1369 55.5481 39.1439 55.5464 39.1524 55.5443C39.1695 55.54 39.1927 55.534 39.2217 55.5263C39.2797 55.5108 39.3609 55.4882 39.4621 55.4577C39.6642 55.3967 39.9475 55.3038 40.2864 55.1727C40.9617 54.9114 41.8715 54.493 42.8043 53.8627C44.6738 52.5993 46.6943 50.437 46.9954 46.9746L45.0029 46.8013C44.7705 49.4737 43.2362 51.157 41.6845 52.2055C40.9066 52.7311 40.139 53.0852 39.5647 53.3074C39.2788 53.4181 39.0441 53.4947 38.8846 53.5428C38.805 53.5668 38.7443 53.5837 38.7057 53.594C38.6864 53.5991 38.6727 53.6026 38.6648 53.6046C38.6609 53.6056 38.6585 53.6062 38.6575 53.6064C38.6571 53.6065 38.657 53.6066 38.6573 53.6065C38.6575 53.6064 38.6577 53.6064 38.6581 53.6063C38.6583 53.6063 38.6586 53.6062 38.6587 53.6062C38.659 53.6061 38.6594 53.606 38.8897 54.5791ZM46.9991 46.8879V37.2617H44.9991V46.8879H46.9991ZM46.9991 37.2617C46.9991 35.4076 45.4739 33.9322 43.6273 33.9322V35.9322C44.4023 35.9322 44.9991 36.5449 44.9991 37.2617H46.9991ZM43.6273 33.9322C41.7839 33.9322 40.2555 35.4046 40.2555 37.2617H42.2555C42.2555 36.544 42.8533 35.9322 43.6273 35.9322V33.9322ZM42.2555 37.2617V35.5052H40.2555V37.2617H42.2555ZM28.0283 41.7225V23.9046H26.0283V41.7225H28.0283ZM28.0283 23.9046C28.0283 22.7318 28.7965 22.0864 29.4001 22.0864V20.0864C27.3821 20.0864 26.0283 21.9649 26.0283 23.9046H28.0283ZM29.4001 22.0864C30.0022 22.0864 30.7719 22.7324 30.7719 23.9046H32.7719C32.7719 21.9643 31.4156 20.0864 29.4001 20.0864V22.0864ZM30.7719 23.9046V36.3294H32.7719V23.9046H30.7719ZM32.7725 33.9352V29.8551H30.7725V33.9352H32.7725ZM32.7725 29.8551C32.7725 28.6822 33.5407 28.0369 34.1443 28.0369V26.0369C32.1263 26.0369 30.7725 27.9153 30.7725 29.8551H32.7725ZM34.1443 28.0369C34.7464 28.0369 35.5161 28.6828 35.5161 29.8551H37.5161C37.5161 27.9147 36.1597 26.0369 34.1443 26.0369V28.0369ZM35.5161 29.8551V39.4106H37.5161V29.8551H35.5161ZM37.5156 32.6498V32.4947H35.5156V32.6498H37.5156ZM37.5156 32.4947C37.5156 31.3219 38.2838 30.6765 38.8874 30.6765V28.6765C36.8695 28.6765 35.5156 30.555 35.5156 32.4947H37.5156ZM38.8874 30.6765C39.4895 30.6765 40.2592 31.3225 40.2592 32.4947H42.2592C42.2592 30.5544 40.9029 28.6765 38.8874 28.6765V30.6765ZM40.2592 32.4947V42.9805H42.2592V32.4947H40.2592ZM20 22.215C20 17.1419 24.1909 13 29.4003 13V11C23.1204 11 18 16.0035 18 22.215H20ZM29.4003 13C34.6098 13 38.8007 17.1419 38.8007 22.215H40.8007C40.8007 16.0035 35.6803 11 29.4003 11V13ZM23.6689 22.2148C23.6689 19.1317 26.2194 16.6011 29.4027 16.6011V14.6011C25.1489 14.6011 21.6689 17.9934 21.6689 22.2148H23.6689ZM29.4027 16.6011C32.586 16.6011 35.1364 19.1317 35.1364 22.2148H37.1364C37.1364 17.9934 33.6565 14.6011 29.4027 14.6011V16.6011Z" fill="#BC5CBE"/>
</svg>
